HIERARCHY
ROOT Hips
{
	OFFSET 32.0928 91.0905 -99.1529
	CHANNELS 6 Xposition Yposition Zposition Zrotation Xrotation Yrotation
	JOINT Spine
	{
		OFFSET 0 10.59 0
		CHANNELS 3 Zrotation Xrotation Yrotation
		JOINT Spine1
		{
			OFFSET 0 10.59 0
			CHANNELS 3 Zrotation Xrotation Yrotation
			JOINT Spine2
			{
				OFFSET 0 10.59 0
				CHANNELS 3 Zrotation Xrotation Yrotation
				JOINT Spine3
				{
					OFFSET 0 10.59 0
					CHANNELS 3 Zrotation Xrotation Yrotation
					JOINT LeftShoulder
					{
						OFFSET 1.5 7.31538 0
						CHANNELS 3 Zrotation Xrotation Yrotation
						JOINT LeftArm
						{
							OFFSET 14.3424 0 0
							CHANNELS 3 Zrotation Xrotation Yrotation
							JOINT LeftForeArm
							{
								OFFSET 29.4034 0 0
								CHANNELS 3 Zrotation Xrotation Yrotation
								JOINT LeftHand
								{
									OFFSET 23.4565 0 0
									CHANNELS 3 Zrotation Xrotation Yrotation
									End Site
									{
										OFFSET 10 0 0
									}
								}
							}
						}
					}
					JOINT RightShoulder
					{
						OFFSET -1.49999 7.31538 0
						CHANNELS 3 Zrotation Xrotation Yrotation
						JOINT RightArm
						{
							OFFSET -14.3424 0 0
							CHANNELS 3 Zrotation Xrotation Yrotation
							JOINT RightForeArm
							{
								OFFSET -29.4034 0 0
								CHANNELS 3 Zrotation Xrotation Yrotation
								JOINT RightHand
								{
									OFFSET -23.4565 0 0
									CHANNELS 3 Zrotation Xrotation Yrotation
									End Site
									{
										OFFSET -10 0 0
									}
								}
							}
						}
					}
					JOINT Neck
					{
						OFFSET 0 10.59 0
						CHANNELS 3 Zrotation Xrotation Yrotation
						JOINT Head
						{
							OFFSET 0 9.22924 0
							CHANNELS 3 Zrotation Xrotation Yrotation
							End Site
							{
								OFFSET 0 15 0
							}
						}
					}
				}
			}
		}
	}
	JOINT LeftUpLeg
	{
		OFFSET 11.2279 0 0
		CHANNELS 3 Zrotation Xrotation Yrotation
		JOINT LeftLeg
		{
			OFFSET 0 -47.7577 0
			CHANNELS 3 Zrotation Xrotation Yrotation
			JOINT LeftFoot
			{
				OFFSET 0 -35.6859 0
				CHANNELS 3 Zrotation Xrotation Yrotation
				JOINT LeftToeBase
				{
					OFFSET 0 -5.73588 9.93486
					CHANNELS 3 Zrotation Xrotation Yrotation
					End Site
					{
						OFFSET 0 0 5
					}
				}
			}
		}
	}
	JOINT RightUpLeg
	{
		OFFSET -11.2279 0 0
		CHANNELS 3 Zrotation Xrotation Yrotation
		JOINT RightLeg
		{
			OFFSET 0 -47.7577 0
			CHANNELS 3 Zrotation Xrotation Yrotation
			JOINT RightFoot
			{
				OFFSET 0 -35.6859 0
				CHANNELS 3 Zrotation Xrotation Yrotation
				JOINT RightToeBase
				{
					OFFSET 0 -5.73588 9.93486
					CHANNELS 3 Zrotation Xrotation Yrotation
					End Site
					{
						OFFSET 0 0 5
					}
				}
			}
		}
	}
}
MOTION
Frames: 13
Frame Time: 0.0111111
33.7364 88.1965 -97.4913 0.280814 4.69853 -33.9697 1.21701 0.764554 -0.361074 1.21701 0.764554 -0.361074 1.21701 0.764554 -0.361074 1.21701 0.764554 -0.361074 6.64609 2.20222 -2.66926 150.92 173.258 -168.876 9.72975 -13.9879 5.68934 173.64 -160.57 -179.944 170.515 177.382 -177.026 156.625 -166.946 178.915 175.242 -172.821 -158.453 4.02367 -10.6884 2.75579 1.84947 14.6664 17.9085 175.462 176.992 175.342 13.1024 1.38676 1.11641 176.835 164.232 -179.144 165.137 -156.898 -165.104 0.111064 0.138296 0.117747 178.782 -151.964 -173.022 179.373 153.358 -179.626 19.6942 -5.78548 4.66437 0.0890026 8.30759 0.123179
33.6721 88.1054 -97.5151 0.0506807 4.34299 -32.3594 1.12575 0.839052 -0.343113 1.12575 0.839052 -0.343113 1.12575 0.839052 -0.343113 1.12575 0.839052 -0.343113 7.78314 1.71123 -2.66848 153.162 174.433 -170.063 11.2257 -15.6465 5.15248 172.627 -158.974 179.902 170.711 177.603 -177.027 158.046 -170.032 177.003 174.164 -176.415 -159.354 3.41601 -9.63976 3.1121 1.39856 14.7124 16.3179 175.868 177.193 175.736 13.3542 0.475151 0.86395 176.808 162.531 -179.137 164.609 -156.93 -166.289 0.1107 0.315467 0.117748 178.227 -152.031 -173.35 179.361 151.75 -179.621 20.0865 -6.53611 4.7868 0.0911358 7.32341 0.122889
33.6157 87.9893 -97.5884 179.844 175.932 149.482 1.05365 0.903761 -0.389523 1.05365 0.903761 -0.389523 1.05365 0.903761 -0.389523 1.05365 0.903761 -0.389523 8.77091 1.07779 -2.66776 155.509 175.785 -170.998 13.0713 -18.2483 4.18769 171.001 -158.003 179.691 170.995 177.87 -177.027 159.584 -172.709 175.209 173.139 179.549 -160.185 3.05335 -8.50886 3.17307 0.772119 14.7444 14.8683 176.302 177.436 176.168 13.6467 -0.68826 0.698642 176.779 160.684 -179.127 164.253 -156.967 -167.531 0.110637 0.345908 0.117748 177.618 -151.972 -173.647 179.348 149.945 -179.614 20.6237 -7.21651 5.07781 0.0936956 6.13666 0.122589
33.5472 87.8698 -97.7218 179.66 176.091 151.428 0.978396 0.9488 -0.441921 0.978396 0.9488 -0.441921 0.978396 0.9488 -0.441921 0.978396 0.9488 -0.441921 9.92844 0.513339 -2.6674 157.606 177.013 -172.057 14.9866 -21.298 3.22348 169.572 -154.897 179.397 171.307 178.055 -177.028 161.653 -175.589 173.465 172.22 176.288 -161.276 2.98734 -7.7821 3.56058 0.130198 14.7255 13.19 176.791 177.628 176.635 14.0416 -2.05945 0.791195 176.748 158.799 -179.117 163.86 -157.214 -168.957 0.111146 0.0985002 0.117746 177.087 -151.825 -173.66 179.333 148.107 -179.607 21.5213 -7.96578 5.25316 0.096031 5.04929 0.122361
33.4668 87.7247 -97.8738 179.423 176.224 153.521 0.932933 1.02285 -0.499174 0.932933 1.02285 -0.499174 0.932933 1.02285 -0.499174 0.932933 1.02285 -0.499174 11.0396 -0.0736047 -2.66729 159.431 178.031 -173.074 17.294 -25.2904 1.56105 169.948 -155.272 -179.364 171.022 178.468 -177.028 164.881 -178.602 171.528 171.532 173.813 -162.347 3.43145 -7.71818 3.72837 179.366 165.471 -168.589 177.334 177.788 177.145 14.5035 -3.51171 1.07555 176.716 156.861 -179.104 163.512 -157.296 -170.307 0.111067 0.136576 0.117747 176.61 -151.769 -173.491 179.318 146.275 -179.598 22.3666 -8.69892 5.7321 0.0980209 4.1199 0.122202
33.333 87.5862 -98.0332 179.118 176.34 155.875 0.916666 1.1211 -0.639901 0.916666 1.1211 -0.639901 0.916666 1.1211 -0.639901 0.916666 1.1211 -0.639901 10.8242 -0.61464 -2.66744 163.214 -179.518 -173.481 17.932 -29.8403 -2.04267 168.995 -153.652 -179.033 171.172 178.713 -177.029 167.844 178.996 169.675 171.432 172.096 -163.776 2.90499 -6.52745 3.90329 178.505 165.793 -170.229 177.914 177.876 177.675 15.0996 -5.09789 1.6132 176.682 154.895 -179.091 163.142 -157.714 -171.656 0.111568 -0.106886 0.117746 176.135 -151.996 -173.024 179.304 144.697 -179.591 23.6747 -9.33836 6.57682 0.10067 2.8791 0.12204
33.2134 87.4554 -98.2011 178.816 176.255 158.353 0.977094 1.16092 -0.864293 0.977094 1.16092 -0.864293 0.977094 1.16092 -0.864293 0.977094 1.16092 -0.864293 8.15724 -0.749951 -2.66752 171.089 -173.335 -172.387 12.635 -33.9352 -11.4119 171.994 -158.551 -176.097 171.072 178.926 -177.029 171.245 176.958 168.089 171.556 171.202 -165.447 2.62947 -5.68086 3.88967 177.186 166.11 -171.647 178.59 177.908 178.282 15.7453 -6.97719 2.1917 176.646 152.925 -179.075 162.882 -158.159 -172.902 0.111603 -0.124154 0.117746 175.713 -152.25 -172.571 179.294 143.494 -179.584 24.7863 -10.048 7.28294 0.102488 2.02614 0.121962
33.0663 87.3681 -98.3337 178.323 176.098 160.982 1.07285 1.21217 -1.2302 1.07285 1.21217 -1.2302 1.07285 1.21217 -1.2302 1.07285 1.21217 -1.2302 0.377403 -0.742815 -2.66751 9.61635 -19.7782 11.2934 176.406 -151.655 154.503 10.3743 -8.81599 7.47006 170.934 179.305 -177.029 175.326 174.612 167.347 171.495 170.853 -167.937 2.40452 -5.19059 4.15008 176.198 166.538 -172.344 179.175 177.816 178.78 16.5875 -8.79461 2.85594 176.616 151.285 -179.061 162.727 -158.827 -173.94 0.111717 -0.17965 0.117747 175.505 -152.862 -171.953 179.288 142.885 -179.581 25.4809 -10.8593 7.68341 0.103237 1.67456 0.121938
32.9008 87.2138 -98.5185 177.855 176.077 163.683 1.08936 1.28492 -1.48905 1.08936 1.28492 -1.48905 1.08936 1.28492 -1.48905 1.08936 1.28492 -1.48905 0.04067 -0.971663 -2.66767 13.1126 -21.5695 11.1606 174.884 -152.146 148.261 20.3377 -4.32964 8.63595 171.204 179.305 -177.029 179.335 172.518 166.333 171.947 170.941 -170.844 1.71466 -4.50846 4.14763 175.86 166.696 -173.465 179.569 177.865 179.139 17.3072 -10.6493 3.36852 176.582 149.473 -179.044 162.491 -159.118 -174.691 0.110707 0.311706 0.117748 175.273 -153.475 -171.379 179.28 141.985 -179.576 26.4908 -11.891 8.33275 0.104019 1.30719 0.121918
32.7097 87.0453 -98.7127 177.421 175.857 166.462 1.13413 1.26967 -1.69941 1.13413 1.26967 -1.69941 1.13413 1.26967 -1.69941 1.13413 1.26967 -1.69941 0.0891165 -1.02548 -2.66772 15.1429 -22.2077 10.3506 175.517 -151.811 142.844 23.5923 -3.13482 9.05995 171.695 179.193 -177.029 3.0513 9.21098 -14.9717 172.268 170.148 -173.335 2.05674 -4.49743 3.78695 175.441 166.781 -174.733 179.944 177.869 179.47 17.9885 -12.7571 3.92734 176.548 147.77 -179.026 162.309 -159.278 -175.088 0.109652 0.82512 0.117758 175.074 -153.941 -170.945 179.273 141.24 -179.572 27.2483 -12.9079 8.89197 0.1049 0.893268 0.121901
32.5061 86.8617 -98.894 176.979 175.729 169.312 1.17912 1.27584 -1.92592 1.17912 1.27584 -1.92592 1.17912 1.27584 -1.92592 1.17912 1.27584 -1.92592 0.371749 -1.05462 -2.66774 16.435 -22.6035 9.7782 175.887 -150.379 136.176 25.295 -1.63133 9.79254 172.505 178.688 -177.029 6.39831 10.4587 -16.0808 172.9 169.577 -175.629 0.122616 -1.88753 3.6893 175.055 166.864 -175.729 0.250545 2.10455 -0.253538 18.5797 -14.8463 4.413 176.516 146.174 -179.009 162.539 -159.795 -175.472 0.10981 0.748102 0.117756 174.878 -154.496 -170.732 179.266 140.514 -179.567 27.9853 -14.0847 9.27168 0.105094 0.802063 0.121898
32.3067 86.6622 -99.0622 176.576 175.579 172.141 1.23872 1.27728 -2.09932 1.23872 1.27728 -2.09932 1.23872 1.27728 -2.09932 1.23872 1.27728 -2.09932 0.605072 -1.11014 -2.66779 17.2307 -22.9948 9.01833 176.15 -148.587 129.241 26.7645 -0.513794 9.78897 173.561 178.448 -177.028 9.3688 11.4455 -17.2466 173.492 167.924 -177.68 0.804449 -2.62019 3.36835 174.698 167.061 -176.561 0.408567 2.10335 -0.113169 19.0403 -16.8906 4.81241 176.486 144.776 -178.992 162.804 -160.247 -175.49 0.109758 0.773866 0.117757 174.669 -155.005 -170.703 179.258 139.787 -179.563 28.6246 -15.3905 9.54383 0.105324 0.693834 0.121895
32.0922 86.4538 -99.2116 176.172 175.485 174.95 1.32877 1.30686 -2.26029 1.32877 1.30686 -2.26029 1.32877 1.30686 -2.26029 1.32877 1.30686 -2.26029 0.356391 -1.22964 -2.6679 18.4729 -23.573 8.59824 175.458 -146.941 121.913 25.887 0.21784 9.30351 174.322 178.214 -177.028 12.7014 12.2835 -18.305 173.825 165.694 -179.37 1.93179 -3.19153 3.33004 174.102 167.517 -177.15 0.59398 2.16848 0.0357949 19.413 -18.8095 5.02019 176.46 143.584 -178.977 162.918 -160.589 -175.57 0.108848 1.21639 0.117773 174.512 -155.549 -171.102 179.252 139.198 -179.559 28.3694 -16.8268 9.26722 0.104114 1.26247 0.121916
